<svg viewBox="0 0 1024 1024" xmlns="http://www.w3.org/2000/svg"><path d="M960 488H313.937L432.97 368.97c4.204-4.32 6.797-10.225 6.797-16.737 0-13.255-10.745-24-24-24-6.51 0-12.417 2.593-16.74 6.803L239.03 495.03c-.796.798-.53 2.01-1.19 2.88-1.32 1.688-3.18 2.86-4.028 4.903-.402 1.607-.632 3.452-.632 5.35 0 .332.007.66.02.99v-.048c-.293 1.31-.46 2.815-.46 4.36 0 .114 0 .23.002.343v-.017c.19 5.895 2.55 11.204 6.3 15.19l-.01-.013 160 160.03c4.35 4.374 10.373 7.08 17.028 7.08 13.266 0 24.02-10.754 24.02-24.02 0-6.67-2.72-12.705-7.11-17.058L313.938 535.997H960c13.255 0 24-10.745 24-24s-10.745-24-24-24zM64 40c-13.253.004-23.996 10.747-24 24v896c0 13.255 10.745 24 24 24s24-10.745 24-24V64c-.004-13.253-10.747-23.996-24-24z"/></svg>