<?xml version="1.0" encoding="UTF-8"?>
<!DOCTYPE svg PUBLIC "-//W3C//DTD SVG 1.1//EN" "http://www.w3.org/Graphics/SVG/1.1/DTD/svg11.dtd">
<!-- Creator: CorelDRAW -->
<svg xmlns="http://www.w3.org/2000/svg" xml:space="preserve" width="6.82666in" height="6.82666in" style="shape-rendering:geometricPrecision; text-rendering:geometricPrecision; image-rendering:optimizeQuality; fill-rule:evenodd; clip-rule:evenodd"
viewBox="0 0 6.82666 6.82666"
 xmlns:xlink="http://www.w3.org/1999/xlink">
 <defs>
  <style type="text/css">
   <![CDATA[
    .fil0 {fill:#FF9800}
    .fil1 {fill:#FFFFFE;fill-rule:nonzero}
   ]]>
  </style>
 </defs>
 <g id="Layer_x0020_1">
  <metadata id="CorelCorpID_0Corel-Layer"/>
  <rect class="fil0" width="6.82666" height="6.82666" rx="0.853335" ry="0.853335"/>
  <path class="fil1" d="M5.87724 4.16689c-0.146787,0.547831 -0.468563,1.01234 -0.895528,1.33996 -0.426823,0.327516 -0.958622,0.518039 -1.52561,0.518039 -0.692185,0 -1.31886,-0.280575 -1.77247,-0.734197 -0.453622,-0.453614 -0.734197,-1.08029 -0.734197,-1.77247 0,-0.692185 0.280575,-1.31886 0.734197,-1.77247 0.453614,-0.453622 1.08029,-0.734197 1.77247,-0.734197 0.229673,0 0.457626,0.0317677 0.67765,0.0935551 0.219441,0.061626 0.430587,0.153268 0.627228,0.273169l-0.110835 0.181669c-0.179713,-0.109579 -0.372909,-0.193394 -0.573898,-0.249839 -0.200409,-0.0562795 -0.409012,-0.0852165 -0.620146,-0.0852165 -0.633299,0 -1.20664,0.256689 -1.62164,0.671693 -0.415004,0.415 -0.671693,0.988339 -0.671693,1.62164 0,0.633299 0.256689,1.20664 0.671693,1.62164 0.415,0.415004 0.988339,0.671693 1.62164,0.671693 0.51926,0 1.00602,-0.174276 1.39644,-0.473866 0.390287,-0.29948 0.684512,-0.724406 0.818858,-1.2258l0.205835 0.055z"/>
  <polygon class="fil1" points="4.66156,0.801764 4.83259,1.44008 4.86015,1.54291 4.75718,1.5705 4.12939,1.73871 "/>
  <path class="fil1" d="M5.1475 2.32471l0 0.123189 -0.464732 0c0.00515354,-0.0465394 0.0201299,-0.0906614 0.0454094,-0.132366 0.025122,-0.0417047 0.074878,-0.0969409 0.148953,-0.165862 0.0599055,-0.0555551 0.0964567,-0.0933976 0.109984,-0.113205 0.0181929,-0.027378 0.027374,-0.0544252 0.027374,-0.0811575 0,-0.0294685 -0.00788976,-0.0521772 -0.0238307,-0.0681142 -0.0159449,-0.0159449 -0.0378425,-0.0238346 -0.0658661,-0.0238346 -0.0276929,0 -0.0495945,0.00837008 -0.0660197,0.0249606 -0.0162638,0.0167441 -0.0257638,0.0444449 -0.0283386,0.0830906l-0.132047 -0.0132047c0.00788976,-0.0729449 0.0325276,-0.12528 0.0740748,-0.157165 0.0415472,-0.0317244 0.0933976,-0.0476654 0.155717,-0.0476654 0.0682756,0 0.121902,0.0185157 0.160866,0.0552362 0.0389724,0.0368701 0.0584567,0.0826063 0.0584567,0.137358 0,0.0310787 -0.00563386,0.0607047 -0.016748,0.0888858 -0.0111142,0.0281811 -0.0288228,0.0576496 -0.0529803,0.0884055 -0.0161024,0.0204528 -0.0450866,0.0499213 -0.0867953,0.0882441 -0.0418622,0.0383268 -0.068437,0.0639291 -0.0795472,0.0764921 -0.0111102,0.0125591 -0.0202913,0.0247953 -0.0272165,0.0367126l0.263287 0zm0.349594 0.123189l0 -0.13913 -0.283091 0 0 -0.116102 0.300161 -0.439291 0.111268 0 0 0.438807 0.0858307 0 0 0.116587 -0.0858307 0 0 0.13913 -0.128339 0zm0 -0.255717l0 -0.23639 -0.158933 0.23639 0.158933 0z"/>
  <g id="_470062656">
   <path id="_470062800" class="fil1" d="M1.79908 2.21566c-0.0399291,0 -0.0722992,0.0323701 -0.0722992,0.0722953 0,0.0399291 0.0323701,0.0722992 0.0722992,0.0722992l0.47411 0 0.125244 0.201961 0.357535 2.05101 0.0711654 -0.0121417 -0.0712205 0.0124173c0.00617717,0.0354409 0.0371929,0.0603189 0.0720472,0.0598819l2.07503 0c0.0399291,0 0.0722992,-0.032374 0.0722992,-0.0722992 0,-0.0399291 -0.0323701,-0.0722992 -0.0722992,-0.0722992l-2.01517 0 -0.0494646 -0.283756 2.0449 0c0.0562756,0 0.104839,-0.0224528 0.141102,-0.0587165 0.0359961,-0.0359961 0.059189,-0.0860472 0.0644882,-0.140665l0.107091 -1.10303c0.000724409,-0.00748425 0.00108268,-0.0132835 0.00108268,-0.0174173 0,-0.052437 -0.0225945,-0.0994724 -0.0581142,-0.134382 -0.0336299,-0.0330472 -0.0795866,-0.0551732 -0.128709,-0.059937 -0.0081811,-0.000787402 -0.0148425,-0.00120079 -0.0198543,-0.00120079l-2.41614 0 -0.0351378 -0.201563c-0.00118898,-0.0102402 -0.00458661,-0.0203858 -0.0103819,-0.0297283l-0.000232283 0.000145669 -0.150756 -0.243102c-0.0119055,-0.0235945 -0.0363504,-0.0397756 -0.0645787,-0.0397756l-0.514028 0zm2.7989 0.586323l0 0.443417 0.493602 0 -0.0145236 0.108024 -0.479079 0 0 0.305693 0.456197 0 -0.0140787 0.10802 -0.442118 0 0 0.405594 -0.0981929 0 0 -0.405594 -0.60411 0 0 0.405594 -0.0981929 0 0 -0.405594 -0.60411 0 0 0.405594 -0.098189 0 0 -0.405594 -0.377173 0 -0.022248 -0.10802 0.399421 0 0 -0.305693 -0.413874 0 -0.0229528 -0.108024 0.436827 0 0 -0.443417 0.098189 0 0 0.443417 0.60411 0 0 -0.443417 0.0981929 0 0 0.443417 0.60411 0 0 -0.443417 0.0981929 0zm-0.0981929 0.857134l0 -0.305693 -0.60411 0 0 0.305693 0.60411 0zm-1.30641 0l0.60411 0 0 -0.305693 -0.60411 0 0 0.305693z"/>
   <g>
    <path id="_470062752" class="fil1" d="M3.12699 4.72706c0.0725118,0 0.138165,0.0293976 0.185693,0.0769252 0.0475236,0.0475276 0.0769252,0.113185 0.0769252,0.185693 0,0.0725118 -0.0294016,0.138165 -0.0769252,0.185693 -0.0475236,0.0475236 -0.113181,0.0769213 -0.185693,0.0769213 -0.0725079,0 -0.138165,-0.0293976 -0.185693,-0.0769213 -0.0475276,-0.0475276 -0.0769252,-0.113181 -0.0769252,-0.185693 0,-0.0725079 0.0293976,-0.138165 0.0769252,-0.185693 0.0475236,-0.0475276 0.113181,-0.0769252 0.185693,-0.0769252z"/>
    <path id="_470062632" class="fil1" d="M4.48811 4.72706c0.0725118,0 0.138165,0.0293976 0.185693,0.0769252 0.0475236,0.0475276 0.0769252,0.113185 0.0769252,0.185693 0,0.0725118 -0.0294016,0.138165 -0.0769252,0.185693 -0.0475236,0.0475236 -0.113181,0.0769213 -0.185693,0.0769213 -0.0725079,0 -0.138165,-0.0293976 -0.185693,-0.0769213 -0.0475236,-0.0475276 -0.0769252,-0.113181 -0.0769252,-0.185693 0,-0.0725079 0.0294016,-0.138165 0.0769252,-0.185693 0.0475236,-0.0475276 0.113181,-0.0769252 0.185693,-0.0769252z"/>
   </g>
  </g>
 </g>
</svg>
