<svg width="173" height="162" viewBox="0 0 173 162" fill="none" xmlns="http://www.w3.org/2000/svg">
<g id="&#240;&#159;&#166;&#134; icon &#34;Share&#34;">
<path id="Vector" d="M63.2721 12.004C66.4488 12.004 69.0241 14.5793 69.0241 17.756C69.0241 20.5798 66.9893 22.9283 64.306 23.4154L63.2721 23.508H28.76C19.7904 23.508 12.4192 30.3516 11.583 39.1022L11.504 40.7641V132.796C11.504 141.765 18.3476 149.137 27.0982 149.973L28.76 150.052H120.792C129.761 150.052 137.133 143.208 137.969 134.458L138.048 132.796V121.292C138.048 118.116 140.624 115.54 143.8 115.54C146.623 115.54 148.972 117.575 149.459 120.258L149.552 121.292V132.796C149.552 148.044 137.685 160.521 122.683 161.495L120.792 161.556H28.76C13.5117 161.556 1.03492 149.689 0.0611747 134.687L0 132.796V40.7641C0 25.5157 11.8668 13.0389 26.8691 12.0652L28.76 12.004H63.2721ZM107.88 7.14726C107.88 1.99593 113.193 -0.937087 117.271 1.21075L118.123 1.74981L118.833 2.35963L170.568 53.2209C172.714 55.3308 173.126 58.5777 171.804 61.1243L171.227 62.0428L170.569 62.7956L118.834 113.673C115.207 117.24 109.463 115.34 108.152 110.837L107.941 109.833L107.88 108.886V84.7796L104.915 85.0465C102.052 85.3525 99.206 85.7988 96.376 86.3855C78.7314 90.0472 61.713 99.1803 45.2408 113.888C40.7608 117.889 33.8295 114.107 34.5663 108.064C40.1602 62.1862 63.1229 36.3849 102.254 32.1082L105.296 31.8218L107.88 31.6479V7.14726ZM119.384 19.0334V42.4041L106.139 43.2949C88.0356 44.745 74.6881 51.0516 65.1495 61.3392C57.453 69.64 51.5947 81.2283 48.1643 96.6218C64.4485 84.418 81.6476 76.7701 99.7904 74.1025L103.789 73.5968L119.384 72.1957V96.998L159.029 58.0091L119.384 19.0334Z" fill="#1890FF"/>
</g>
</svg>
